<?xml version="1.0" encoding="UTF-8" standalone="no"?>
<svg
   xmlns:dc="http://purl.org/dc/elements/1.1/"
   xmlns:cc="http://creativecommons.org/ns#"
   xmlns:rdf="http://www.w3.org/1999/02/22-rdf-syntax-ns#"
   xmlns:svg="http://www.w3.org/2000/svg"
   xmlns="http://www.w3.org/2000/svg"
   xmlns:sodipodi="http://sodipodi.sourceforge.net/DTD/sodipodi-0.dtd"
   xmlns:inkscape="http://www.inkscape.org/namespaces/inkscape"
   inkscape:version="1.0 (4035a4fb49, 2020-05-01)"
   width="94.773399mm"
   height="101.60121mm"
   viewBox="0 0 94.773399 101.60121"
   version="1.1"
   id="svg8">
  <defs
     id="defs2" />
  <sodipodi:namedview
     inkscape:window-maximized="0"
     inkscape:window-y="111"
     inkscape:window-x="344"
     inkscape:window-height="1205"
     inkscape:window-width="1530"
     fit-margin-bottom="0"
     fit-margin-right="0"
     fit-margin-left="0"
     fit-margin-top="0"
     inkscape:pagecheckerboard="true"
     showgrid="false"
     inkscape:document-rotation="0"
     inkscape:current-layer="layer1"
     inkscape:document-units="mm"
     inkscape:cy="-17.50692"
     inkscape:cx="238.3719"
     inkscape:zoom="0.98994949"
     inkscape:pageshadow="2"
     inkscape:pageopacity="0.0"
     borderopacity="1.0"
     bordercolor="#666666"
     pagecolor="#ffffff"
     id="base" />
  <metadata
     id="metadata5">
    <rdf:RDF>
      <cc:Work
         rdf:about="">
        <dc:format>image/svg+xml</dc:format>
        <dc:type
           rdf:resource="http://purl.org/dc/dcmitype/StillImage" />
        <dc:title></dc:title>
      </cc:Work>
    </rdf:RDF>
  </metadata>
  <g
     transform="translate(-65.364473,-93.600691)"
     id="layer1"
     inkscape:groupmode="layer"
     inkscape:label="Layer 1">
    <path
       sodipodi:nodetypes="ssscccsscscccsssscccssssscsssccsscccsssaccccssssssssssscccsscccsscccsssscsscccssscccssscscsssscsssscssscsssscssssssscsscsssscssscccscssssssscsssscsssscccssssssssssssssssssssssssscsssscc"
       id="path40"
       d="m 110.62086,194.8121 c -0.86926,-0.26698 -1.69838,-0.80745 -2.55913,-1.66821 -1.25056,-1.25055 -1.62712,-2.07024 -1.97317,-4.2951 l -0.15105,-0.97115 -14.529474,-8.35354 -14.52948,-8.35354 -1.36268,0.84708 c -2.56967,1.5974 -5.9425,1.28499 -8.03163,-0.74395 -1.45921,-1.41716 -2.05742,-2.80406 -2.08884,-4.84274 -0.0436,-2.83297 1.47724,-5.13296 4.12607,-6.23971 l 0.97795,-0.40861 v -15.4622 -15.46219 l -1.12745,-0.49872 c -3.08837,-1.36613 -4.68424,-4.80092 -3.73447,-8.03767 0.51572,-1.75748 2.57855,-3.89892 4.23115,-4.39237 2.10356,-0.6281 4.43435,-0.25027 6.19648,1.00448 l 0.76826,0.54705 14.59775,-8.41283 14.597754,-8.41283 0.095,-1.133972 c 0.20447,-2.441038 2.11268,-4.854288 4.4359,-5.609921 1.35993,-0.442323 3.54161,-0.407898 4.69515,0.07408 1.19899,0.500973 2.78246,1.900153 3.32585,2.938773 0.23613,0.45134 0.55956,1.46156 0.71873,2.244918 l 0.2894,1.424312 14.41273,8.43142 c 7.92701,4.63729 14.55563,8.43143 14.73026,8.43143 0.17464,0 0.39868,-0.1313 0.49786,-0.29178 0.36784,-0.59518 2.9051,-1.55516 4.11711,-1.55772 3.90374,-0.008 6.68771,2.79178 6.70561,6.7443 0.007,1.56361 -0.10769,2.04957 -0.7369,3.12001 -0.7634,1.29871 -2.44825,2.72807 -3.53814,3.00162 l -0.61136,0.15344 0.0155,15.64788 0.0155,15.64788 1.36616,0.66943 c 3.45803,1.69445 4.65249,6.22035 2.49028,9.43591 -0.47296,0.70338 -1.41789,1.60907 -2.14694,2.05778 -1.16837,0.71912 -2.24841,1.02306 -3.44563,1.01407 -1.22623,-0.009 -2.25014,-0.28101 -3.51313,-1.09152 l -1.36968,-0.87892 -14.4844,8.44979 -14.48441,8.44979 -0.29358,1.42496 c -0.16147,0.78373 -0.48787,1.7911 -0.72535,2.23859 -0.69627,1.31207 -2.4256,2.69109 -3.93786,3.14019 -1.67705,0.49803 -2.3561,0.49466 -4.03172,-0.02 z m 4.01046,-3.44501 c 1.83658,-1.16392 2.08996,-3.69621 0.5308,-5.30486 -2.48097,-2.55971 -6.51664,-0.22611 -5.74197,3.32026 0.49143,2.24978 3.17818,3.27299 5.21117,1.9846 z m -3.72723,-9.24765 c 2.4813,-0.72133 4.56758,-0.1528 6.58854,1.79543 l 1.08801,1.04886 14.19168,-8.26129 14.19168,-8.2613 v -1.8925 c 0,-3.09254 1.36519,-5.23597 4.04914,-6.3574 l 0.97795,-0.40861 v -15.45097 -15.45097 l -1.19693,-0.57943 c -2.58354,-1.25067 -3.81191,-3.2441 -3.8295,-6.21465 l -0.011,-1.8521 -14.167,-8.28266 -14.16701,-8.28266 -0.9866,1.01663 c -2.70494,2.78725 -6.62503,2.89292 -9.48608,0.2557 -0.90148,-0.83096 -1.25045,-1.00503 -1.64122,-0.81868 -0.27296,0.13017 -6.699234,3.80855 -14.280594,8.17417 l -13.7843,7.9375 0.1596,1.22062 c 0.35432,2.70971 -1.53903,5.99531 -3.95913,6.87043 l -0.96692,0.34964 v 15.63641 15.6364 l 0.96377,0.34851 c 0.53008,0.19167 1.4766,0.86133 2.10339,1.48812 1.33324,1.33324 2.04562,3.34805 1.91266,5.40951 l -0.085,1.31825 14.1552,8.15683 14.155214,8.15683 1.28691,-1.14246 c 0.83979,-0.74551 1.79092,-1.28897 2.73755,-1.56416 z m 1.13237,-8.59934 c -0.16945,-0.63946 -0.83403,-3.03877 -1.47685,-5.3318 l -1.16876,-4.16914 0.8514,-1.5194 c 0.46828,-0.83567 0.98593,-1.65809 1.15035,-1.8276 0.36559,-0.37689 1.02198,-1.91797 0.87818,-2.06177 -0.0572,-0.0572 -1.41271,-0.18638 -3.01218,-0.28701 -1.59947,-0.10063 -3.02458,-0.19883 -3.16691,-0.2182 -0.2488,-0.0339 -3.48922,-4.52536 -5.84746,-8.10503 -0.623134,-0.94589 -2.331884,-3.46992 -3.797224,-5.60897 -1.46534,-2.13905 -2.66425,-4.03734 -2.66425,-4.21843 0,-0.37904 4.02477,-8.90916 7.216884,-15.29549 1.90925,-3.81978 2.25687,-4.35775 2.83729,-4.39099 0.3638,-0.0208 2.14973,-0.11896 3.96874,-0.21805 1.81902,-0.0991 3.96214,-0.23448 4.7625,-0.30087 1.89288,-0.15703 4.66117,-0.33031 8.59896,-0.53827 l 3.175,-0.16767 2.77813,4.29349 c 1.52796,2.36141 2.89718,4.43086 3.0427,4.59877 0.14552,0.16791 0.38365,0.50146 0.52917,0.74123 0.14552,0.23978 1.5527,2.42759 3.12706,4.86181 l 2.86248,4.42585 -3.02245,6.48295 c -2.2521,4.83058 -3.15027,6.50215 -3.52394,6.55828 -0.46982,0.0706 -4.61683,0.37314 -6.27658,0.45793 -0.69859,0.0357 -1.01535,-0.38137 -4.79383,-6.31178 -2.72736,-4.28067 -4.18637,-6.33805 -4.47712,-6.31332 -1.47185,0.12519 -3.8751,0.39804 -4.66541,0.52969 -0.88148,0.14683 -0.90058,0.13414 -0.39687,-0.26379 0.29104,-0.22992 0.60702,-0.42183 0.70218,-0.42646 0.0952,-0.005 0.9286,-0.43746 1.85208,-0.96186 0.92349,-0.52439 2.43707,-1.37192 3.36353,-1.88339 l 1.68446,-0.92996 0.5645,0.66855 c 0.31047,0.3677 1.39793,1.76937 2.41658,3.11484 4.92668,6.50733 6.0074,7.75814 6.28091,7.2694 0.14343,-0.25629 1.01301,-2.05285 1.9324,-3.99236 l 1.67163,-3.52638 -1.89329,-2.99248 c -1.0413,-1.64587 -2.04202,-3.17107 -2.22381,-3.38936 -0.1818,-0.21828 -1.20335,-1.76609 -2.27012,-3.43958 l -1.93958,-3.04271 -2.10199,0.0206 c -2.16845,0.0212 -8.67502,0.38349 -9.37803,0.52212 -0.21828,0.043 -1.06563,0.0874 -1.88299,0.0985 l -1.48612,0.0202 -0.71462,1.91822 c -0.39303,1.05503 -0.99168,2.63261 -1.33033,3.50573 -3.38225,8.72029 -3.23707,8.21529 -2.66642,9.27491 0.26274,0.48788 0.67073,1.10092 0.90664,1.36232 0.23592,0.2614 1.47025,2.02309 2.74296,3.91486 1.27271,1.89177 2.59833,3.79413 2.94582,4.22747 0.6808,0.84899 0.7606,0.86195 5.61391,0.91237 l 1.8799,0.0195 1.15311,1.65364 c 0.63421,0.90951 1.30622,1.8109 1.49335,2.00309 0.18714,0.19219 0.62424,0.84704 0.97134,1.45521 0.57843,1.0135 0.63449,1.42588 0.67187,4.94223 l 0.0408,3.83645 -1.00242,1.09473 c -0.55133,0.6021 -1.5382,1.71778 -2.19305,2.47928 -0.65484,0.76151 -1.53448,1.75716 -1.95475,2.21257 -0.42027,0.4554 -1.27426,1.41074 -1.89775,2.12296 l -1.13362,1.29497 -0.30809,-1.16267 z m -38.208574,-4.17512 c 0.86366,-0.52666 1.69862,-1.97215 1.69862,-2.94067 0,-0.99843 -0.8114,-2.349 -1.76552,-2.93867 -3.16241,-1.95448 -6.76149,2.14819 -4.48792,5.11586 0.95865,1.2513 3.15195,1.61895 4.55482,0.76348 z m 81.552564,-0.037 c 0.88416,-0.53906 1.63772,-1.88323 1.63772,-2.9213 0,-0.94683 -0.83862,-2.39771 -1.69861,-2.93872 -0.61089,-0.3843 -1.14205,-0.48438 -2.12143,-0.3997 -2.71306,0.23457 -4.02672,3.22817 -2.36985,5.40044 0.3791,0.49703 0.94465,1.00674 1.25677,1.13269 0.9831,0.3967 2.38738,0.28019 3.2954,-0.27341 z M 73.888776,125.12253 c 0.87898,-0.53589 1.63773,-1.88208 1.63773,-2.90567 0,-0.97002 -0.98683,-2.52197 -1.92483,-3.02712 -3.18785,-1.71677 -6.54188,2.31738 -4.32861,5.20634 0.97651,1.27462 3.1544,1.61739 4.61571,0.72645 z m 81.491674,0 c 0.88416,-0.53906 1.63772,-1.88322 1.63772,-2.92129 0,-0.94684 -0.83862,-2.39773 -1.69861,-2.93873 -0.61266,-0.38542 -1.14144,-0.48441 -2.13044,-0.39884 -1.12697,0.0975 -1.43982,0.25763 -2.18281,1.11715 -1.16079,1.34284 -1.2256,3.09458 -0.16128,4.35946 0.38831,0.46148 0.95386,0.93932 1.25677,1.06186 0.96642,0.39096 2.37595,0.27075 3.27865,-0.27961 z m -41.08182,-21.84414 c 1.11576,-0.52947 1.67979,-1.38415 1.86063,-2.81948 0.44556,-3.5364 -4.39353,-5.16294 -6.37287,-2.14209 -0.60307,0.920408 -0.56808,2.90077 0.0666,3.76725 0.59206,0.80834 2.05807,1.61299 2.93981,1.61357 0.34181,2.3e-4 1.01945,-0.18844 1.50586,-0.41925 z"
       style="fill:#ffffff;stroke-width:0.264583" />
  </g>
</svg>
